<?xml version="1.0" encoding="UTF-8"?>
<svg xmlns="http://www.w3.org/2000/svg" xmlns:xlink="http://www.w3.org/1999/xlink" width="150px" height="150px" viewBox="0 0 212 212" version="1.1">
<defs>
<filter id="alpha" filterUnits="objectBoundingBox" x="0%" y="0%" width="100%" height="100%">
  <feColorMatrix type="matrix" in="SourceGraphic" values="0 0 0 0 1 0 0 0 0 1 0 0 0 0 1 0 0 0 1 0"/>
</filter>
<mask id="mask0">
  <g filter="url(#alpha)">
<rect x="0" y="0" width="212" height="212" style="fill:rgb(0%,0%,0%);fill-opacity:0.501961;stroke:none;"/>
  </g>
</mask>
<clipPath id="clip1">
  <rect x="0" y="0" width="212" height="212"/>
</clipPath>
<g id="surface5" clip-path="url(#clip1)">
<path style=" stroke:none;fill-rule:nonzero;fill:rgb(21.176471%,40.392157%,19.607843%);fill-opacity:1;" d="M 104.109375 196.011719 C 99.726562 194.8125 94.878906 188.710938 99.050781 184.53125 C 100.890625 182.785156 104.121094 182.523438 106.53125 182.113281 C 108.917969 181.542969 111.222656 180.6875 113.402344 179.5625 C 118.363281 177.191406 122.035156 173.953125 116.910156 169.273438 C 114.121094 166.804688 110.792969 165.996094 107.1875 165.898438 C 102.703125 165.53125 99.402344 166.992188 95.523438 169.03125 C 90.921875 171.53125 88.730469 172.898438 88.582031 178.390625 C 88.582031 182.332031 90.003906 187.257812 92.785156 190.199219 C 94.871094 192.441406 100.621094 196.03125 103.847656 196.003906 Z M 104.109375 196.011719 "/>
</g>
<mask id="mask1">
  <g filter="url(#alpha)">
<rect x="0" y="0" width="212" height="212" style="fill:rgb(0%,0%,0%);fill-opacity:0.501961;stroke:none;"/>
  </g>
</mask>
<clipPath id="clip2">
  <rect x="0" y="0" width="212" height="212"/>
</clipPath>
<g id="surface8" clip-path="url(#clip2)">
<path style=" stroke:none;fill-rule:nonzero;fill:rgb(21.176471%,40.392157%,19.607843%);fill-opacity:1;" d="M 33.820312 159.183594 C 36.0625 163.15625 43.125 166.386719 46.183594 161.320312 C 47.425781 159.125 46.929688 155.921875 46.730469 153.492188 C 46.707031 151.039062 46.980469 148.59375 47.550781 146.207031 C 48.660156 140.824219 50.917969 136.484375 56.691406 140.320312 C 59.757812 142.445312 61.34375 145.472656 62.300781 148.921875 C 63.742188 153.222656 63.109375 156.746094 62.0625 160.992188 C 60.746094 166.0625 59.945312 168.515625 54.65625 169.96875 C 50.835938 170.902344 45.683594 170.714844 42.175781 168.734375 C 39.535156 167.238281 34.636719 162.527344 33.886719 159.394531 Z M 33.820312 159.183594 "/>
</g>
<mask id="mask2">
  <g filter="url(#alpha)">
<rect x="0" y="0" width="212" height="212" style="fill:rgb(0%,0%,0%);fill-opacity:0.360784;stroke:none;"/>
  </g>
</mask>
<clipPath id="clip3">
  <rect x="0" y="0" width="212" height="212"/>
</clipPath>
<g id="surface11" clip-path="url(#clip3)">
<path style=" stroke:none;fill-rule:nonzero;fill:rgb(100%,100%,100%);fill-opacity:1;" d="M 179.742188 66.839844 C 185.113281 58.5 183.757812 48.695312 189.324219 41.300781 C 184.730469 47.042969 181.484375 50.855469 178 53.234375 C 177.253906 56.621094 175.957031 59.859375 174.164062 62.824219 C 168.457031 72.402344 158.585938 77.65625 163.46875 89.203125 C 167.367188 97.824219 166.460938 107.808594 159.640625 114.871094 C 154.777344 120.335938 149.304688 121.699219 144.816406 120.171875 C 149.511719 126.15625 158.023438 126.992188 165.21875 118.921875 C 172.023438 111.863281 172.945312 101.878906 169.046875 93.253906 C 164.164062 81.699219 174.035156 76.449219 179.742188 66.871094 "/>
</g>
<mask id="mask3">
  <g filter="url(#alpha)">
<rect x="0" y="0" width="212" height="212" style="fill:rgb(0%,0%,0%);fill-opacity:0.360784;stroke:none;"/>
  </g>
</mask>
<clipPath id="clip4">
  <rect x="0" y="0" width="212" height="212"/>
</clipPath>
<g id="surface14" clip-path="url(#clip4)">
<path style=" stroke:none;fill-rule:nonzero;fill:rgb(100%,100%,100%);fill-opacity:1;" d="M 42.546875 39.796875 C 40.789062 30.035156 45.808594 21.503906 43.511719 12.535156 C 45.570312 19.609375 47.117188 24.34375 49.363281 27.898438 C 48.761719 31.304688 48.726562 34.785156 49.257812 38.203125 C 50.855469 49.242188 57.941406 57.878906 48.988281 66.667969 C 42.078125 73.128906 39.09375 82.703125 42.667969 91.835938 C 45.0625 98.722656 49.585938 102.109375 54.3125 102.460938 C 47.695312 106.148438 39.496094 103.6875 35.960938 93.488281 C 32.390625 84.355469 35.375 74.789062 42.285156 68.3125 C 51.261719 59.527344 44.132812 50.886719 42.546875 39.847656 "/>
</g>
<mask id="mask4">
  <g filter="url(#alpha)">
<rect x="0" y="0" width="212" height="212" style="fill:rgb(0%,0%,0%);fill-opacity:0.6;stroke:none;"/>
  </g>
</mask>
<clipPath id="clip5">
  <rect x="0" y="0" width="212" height="212"/>
</clipPath>
<g id="surface17" clip-path="url(#clip5)">
<path style=" stroke:none;fill-rule:nonzero;fill:rgb(19.607843%,60%,27.45098%);fill-opacity:1;" d="M 52.128906 135.640625 C 54.84375 122.175781 63.28125 66.601562 71.371094 56.414062 C 73.21875 54.085938 75.4375 52.082031 77.9375 50.476562 C 70.453125 65.816406 63.0625 114.160156 60.578125 126.613281 C 58.179688 138.578125 59.75 149.421875 65.464844 156.484375 C 70.617188 162.855469 106.464844 172.121094 122.558594 167.441406 C 123.558594 167.144531 124.527344 166.75 125.445312 166.257812 C 122.828125 171.039062 119.261719 174.964844 114.128906 176.460938 C 98.042969 181.140625 62.195312 171.875 57.042969 165.511719 C 51.328125 158.441406 49.757812 147.5625 52.160156 135.640625 "/>
</g>
<mask id="mask5">
  <g filter="url(#alpha)">
<rect x="0" y="0" width="212" height="212" style="fill:rgb(0%,0%,0%);fill-opacity:0.478431;stroke:none;"/>
  </g>
</mask>
<clipPath id="clip6">
  <rect x="0" y="0" width="212" height="212"/>
</clipPath>
<g id="surface20" clip-path="url(#clip6)">
<path style=" stroke:none;fill-rule:nonzero;fill:rgb(100%,100%,100%);fill-opacity:1;" d="M 134.75 79.679688 C 130.007812 60.707031 93.613281 47.386719 73.816406 60.773438 C 74.292969 59.71875 74.878906 58.71875 75.558594 57.78125 C 92.566406 35.570312 137.359375 49.714844 142.65625 70.894531 C 146.15625 85.753906 133.410156 140.097656 129.484375 153.222656 C 127.195312 160.851562 123.824219 169.152344 117.390625 172.726562 C 119.128906 169.300781 120.53125 165.714844 121.578125 162.019531 C 125.503906 148.890625 138.25 94.550781 134.75 79.6875 "/>
</g>
<mask id="mask6">
  <g filter="url(#alpha)">
<rect x="0" y="0" width="212" height="212" style="fill:rgb(0%,0%,0%);fill-opacity:0.329412;stroke:none;"/>
  </g>
</mask>
<clipPath id="clip7">
  <rect x="0" y="0" width="212" height="212"/>
</clipPath>
<g id="surface23" clip-path="url(#clip7)">
<path style=" stroke:none;fill-rule:nonzero;fill:rgb(78.823529%,59.607843%,16.862745%);fill-opacity:1;" d="M 116.433594 47.117188 C 112.449219 55.519531 114.792969 65.554688 122.078125 71.328125 C 129.367188 77.097656 139.675781 77.078125 146.941406 71.273438 C 148.039062 70.382812 149.039062 69.382812 149.933594 68.285156 C 146.648438 75.285156 139.621094 79.765625 131.886719 79.777344 C 124.152344 79.792969 117.105469 75.339844 113.800781 68.351562 C 110.492188 61.359375 111.519531 53.089844 116.433594 47.117188 "/>
</g>
<mask id="mask7">
  <g filter="url(#alpha)">
<rect x="0" y="0" width="212" height="212" style="fill:rgb(0%,0%,0%);fill-opacity:0.45098;stroke:none;"/>
  </g>
</mask>
<clipPath id="clip8">
  <rect x="0" y="0" width="212" height="212"/>
</clipPath>
<g id="surface26" clip-path="url(#clip8)">
<path style=" stroke:none;fill-rule:nonzero;fill:rgb(100%,100%,100%);fill-opacity:1;" d="M 146.175781 63.730469 C 147.792969 53.1875 140.558594 43.328125 130.015625 41.710938 C 128.667969 41.503906 127.304688 41.441406 125.945312 41.515625 C 133.058594 39.355469 140.78125 41.46875 145.800781 46.945312 C 150.824219 52.425781 152.257812 60.300781 149.488281 67.199219 C 146.71875 74.097656 140.238281 78.792969 132.820312 79.277344 C 139.875 77.085938 145.0625 71.054688 146.175781 63.75 "/>
</g>
<mask id="mask8">
  <g filter="url(#alpha)">
<rect x="0" y="0" width="212" height="212" style="fill:rgb(0%,0%,0%);fill-opacity:0.431373;stroke:none;"/>
  </g>
</mask>
<clipPath id="clip9">
  <rect x="0" y="0" width="212" height="212"/>
</clipPath>
<g id="surface29" clip-path="url(#clip9)">
<path style=" stroke:none;fill-rule:nonzero;fill:rgb(0%,0%,0%);fill-opacity:1;" d="M 129.902344 71.394531 C 136.121094 72.347656 142.074219 68.519531 143.785156 62.464844 C 143.769531 62.964844 143.71875 63.464844 143.640625 63.960938 C 142.914062 68.519531 139.726562 72.304688 135.355469 73.796875 C 130.984375 75.285156 126.148438 74.234375 122.789062 71.066406 C 119.429688 67.898438 118.097656 63.132812 119.328125 58.679688 C 119.144531 64.972656 123.679688 70.410156 129.902344 71.355469 "/>
</g>
<mask id="mask9">
  <g filter="url(#alpha)">
<rect x="0" y="0" width="212" height="212" style="fill:rgb(0%,0%,0%);fill-opacity:0.501961;stroke:none;"/>
  </g>
</mask>
<clipPath id="clip10">
  <rect x="0" y="0" width="212" height="212"/>
</clipPath>
<g id="surface32" clip-path="url(#clip10)">
<path style=" stroke:none;fill-rule:nonzero;fill:rgb(100%,100%,100%);fill-opacity:1;" d="M 132.648438 53.488281 C 126.832031 52.617188 121.269531 56.199219 119.664062 61.859375 C 119.660156 57.425781 122.160156 53.371094 126.128906 51.386719 C 130.09375 49.40625 134.839844 49.839844 138.382812 52.503906 C 141.925781 55.167969 143.65625 59.609375 142.847656 63.96875 C 142.773438 64.441406 142.671875 64.910156 142.542969 65.375 C 142.707031 59.480469 138.460938 54.386719 132.632812 53.488281 "/>
</g>
<mask id="mask10">
  <g filter="url(#alpha)">
<rect x="0" y="0" width="212" height="212" style="fill:rgb(0%,0%,0%);fill-opacity:0.580392;stroke:none;"/>
  </g>
</mask>
<clipPath id="clip11">
  <rect x="0" y="0" width="212" height="212"/>
</clipPath>
<g id="surface35" clip-path="url(#clip11)">
<path style=" stroke:none;fill-rule:nonzero;fill:rgb(100%,100%,100%);fill-opacity:1;" d="M 133.179688 62.390625 C 132.75 65.203125 134.679688 67.832031 137.492188 68.261719 C 140.304688 68.691406 142.933594 66.761719 143.367188 63.949219 C 143.796875 61.136719 141.867188 58.507812 139.058594 58.074219 C 137.707031 57.867188 136.324219 58.203125 135.222656 59.011719 C 134.121094 59.824219 133.386719 61.039062 133.179688 62.390625 "/>
</g>
<mask id="mask11">
  <g filter="url(#alpha)">
<rect x="0" y="0" width="212" height="212" style="fill:rgb(0%,0%,0%);fill-opacity:0.858824;stroke:none;"/>
  </g>
</mask>
<clipPath id="clip12">
  <rect x="0" y="0" width="212" height="212"/>
</clipPath>
<g id="surface38" clip-path="url(#clip12)">
<path style=" stroke:none;fill-rule:nonzero;fill:rgb(100%,100%,100%);fill-opacity:1;" d="M 131.832031 58.476562 C 131.660156 59.589844 132.175781 60.691406 133.132812 61.277344 C 134.09375 61.859375 135.3125 61.804688 136.21875 61.140625 C 137.121094 60.476562 137.539062 59.328125 137.269531 58.238281 C 137 57.148438 136.097656 56.328125 134.988281 56.160156 C 133.476562 55.933594 132.066406 56.96875 131.832031 58.476562 "/>
</g>
<mask id="mask12">
  <g filter="url(#alpha)">
<rect x="0" y="0" width="212" height="212" style="fill:rgb(0%,0%,0%);fill-opacity:0.909804;stroke:none;"/>
  </g>
</mask>
<clipPath id="clip13">
  <rect x="0" y="0" width="212" height="212"/>
</clipPath>
<g id="surface41" clip-path="url(#clip13)">
<path style=" stroke:none;fill-rule:nonzero;fill:rgb(100%,100%,100%);fill-opacity:1;" d="M 120.054688 64.058594 C 119.925781 64.789062 120.253906 65.527344 120.882812 65.925781 C 121.515625 66.320312 122.320312 66.296875 122.925781 65.863281 C 123.53125 65.429688 123.8125 64.671875 123.640625 63.949219 C 123.46875 63.222656 122.875 62.675781 122.140625 62.5625 C 121.152344 62.410156 120.226562 63.074219 120.054688 64.058594 "/>
</g>
<mask id="mask13">
  <g filter="url(#alpha)">
<rect x="0" y="0" width="212" height="212" style="fill:rgb(0%,0%,0%);fill-opacity:0.811765;stroke:none;"/>
  </g>
</mask>
<clipPath id="clip14">
  <rect x="0" y="0" width="212" height="212"/>
</clipPath>
<g id="surface44" clip-path="url(#clip14)">
<path style=" stroke:none;fill-rule:nonzero;fill:rgb(100%,100%,100%);fill-opacity:1;" d="M 119.796875 62.171875 C 119.699219 62.820312 120.144531 63.425781 120.789062 63.523438 C 121.4375 63.621094 122.039062 63.179688 122.140625 62.53125 C 122.238281 61.886719 121.796875 61.28125 121.148438 61.183594 C 120.503906 61.082031 119.898438 61.527344 119.796875 62.171875 "/>
</g>
<mask id="mask14">
  <g filter="url(#alpha)">
<rect x="0" y="0" width="212" height="212" style="fill:rgb(0%,0%,0%);fill-opacity:0.329412;stroke:none;"/>
  </g>
</mask>
<clipPath id="clip15">
  <rect x="0" y="0" width="212" height="212"/>
</clipPath>
<g id="surface47" clip-path="url(#clip15)">
<path style=" stroke:none;fill-rule:nonzero;fill:rgb(78.823529%,59.607843%,16.862745%);fill-opacity:1;" d="M 75.539062 40.902344 C 71.179688 50.035156 74.34375 60.984375 82.898438 66.386719 C 91.457031 71.789062 102.703125 69.9375 109.074219 62.074219 C 105.757812 69.023438 98.746094 73.445312 91.046875 73.445312 C 83.347656 73.441406 76.335938 69.015625 73.023438 62.066406 C 69.714844 55.117188 70.691406 46.882812 75.539062 40.902344 "/>
</g>
<mask id="mask15">
  <g filter="url(#alpha)">
<rect x="0" y="0" width="212" height="212" style="fill:rgb(0%,0%,0%);fill-opacity:0.45098;stroke:none;"/>
  </g>
</mask>
<clipPath id="clip16">
  <rect x="0" y="0" width="212" height="212"/>
</clipPath>
<g id="surface50" clip-path="url(#clip16)">
<path style=" stroke:none;fill-rule:nonzero;fill:rgb(100%,100%,100%);fill-opacity:1;" d="M 105.320312 57.484375 C 106.933594 46.9375 99.695312 37.082031 89.148438 35.464844 C 87.804688 35.257812 86.441406 35.195312 85.082031 35.269531 C 92.203125 33.058594 99.960938 35.144531 105.015625 40.628906 C 110.066406 46.109375 111.515625 54.011719 108.730469 60.929688 C 105.949219 67.847656 99.433594 72.546875 91.992188 73.003906 C 99.046875 70.808594 104.234375 64.785156 105.355469 57.484375 "/>
</g>
<mask id="mask16">
  <g filter="url(#alpha)">
<rect x="0" y="0" width="212" height="212" style="fill:rgb(0%,0%,0%);fill-opacity:0.431373;stroke:none;"/>
  </g>
</mask>
<clipPath id="clip17">
  <rect x="0" y="0" width="212" height="212"/>
</clipPath>
<g id="surface53" clip-path="url(#clip17)">
<path style=" stroke:none;fill-rule:nonzero;fill:rgb(0%,0%,0%);fill-opacity:1;" d="M 89.039062 65.148438 C 95.257812 66.101562 101.210938 62.273438 102.925781 56.21875 C 102.902344 56.71875 102.855469 57.21875 102.785156 57.714844 C 101.585938 64.359375 95.320312 68.84375 88.644531 67.832031 C 81.96875 66.816406 77.3125 60.675781 78.140625 53.976562 C 78.222656 53.472656 78.332031 52.972656 78.46875 52.480469 C 78.269531 58.78125 82.804688 64.242188 89.039062 65.195312 "/>
</g>
<mask id="mask17">
  <g filter="url(#alpha)">
<rect x="0" y="0" width="212" height="212" style="fill:rgb(0%,0%,0%);fill-opacity:0.501961;stroke:none;"/>
  </g>
</mask>
<clipPath id="clip18">
  <rect x="0" y="0" width="212" height="212"/>
</clipPath>
<g id="surface56" clip-path="url(#clip18)">
<path style=" stroke:none;fill-rule:nonzero;fill:rgb(100%,100%,100%);fill-opacity:1;" d="M 91.78125 47.238281 C 85.953125 46.34375 80.371094 49.9375 78.769531 55.613281 C 78.910156 51.28125 81.441406 47.382812 85.339844 45.488281 C 89.238281 43.59375 93.867188 44.015625 97.359375 46.578125 C 100.855469 49.144531 102.640625 53.4375 102 57.722656 C 101.925781 58.195312 101.820312 58.667969 101.691406 59.128906 C 101.867188 53.230469 97.613281 48.128906 91.78125 47.238281 "/>
</g>
<mask id="mask18">
  <g filter="url(#alpha)">
<rect x="0" y="0" width="212" height="212" style="fill:rgb(0%,0%,0%);fill-opacity:0.580392;stroke:none;"/>
  </g>
</mask>
<clipPath id="clip19">
  <rect x="0" y="0" width="212" height="212"/>
</clipPath>
<g id="surface59" clip-path="url(#clip19)">
<path style=" stroke:none;fill-rule:nonzero;fill:rgb(100%,100%,100%);fill-opacity:1;" d="M 92.3125 56.144531 C 91.882812 58.957031 93.816406 61.585938 96.628906 62.015625 C 99.441406 62.445312 102.070312 60.515625 102.5 57.703125 C 102.933594 54.894531 101.003906 52.261719 98.191406 51.828125 C 96.839844 51.621094 95.460938 51.960938 94.359375 52.769531 C 93.253906 53.578125 92.519531 54.792969 92.3125 56.144531 "/>
</g>
<mask id="mask19">
  <g filter="url(#alpha)">
<rect x="0" y="0" width="212" height="212" style="fill:rgb(0%,0%,0%);fill-opacity:0.858824;stroke:none;"/>
  </g>
</mask>
<clipPath id="clip20">
  <rect x="0" y="0" width="212" height="212"/>
</clipPath>
<g id="surface62" clip-path="url(#clip20)">
<path style=" stroke:none;fill-rule:nonzero;fill:rgb(100%,100%,100%);fill-opacity:1;" d="M 90.96875 52.234375 C 90.738281 53.746094 91.777344 55.164062 93.292969 55.394531 C 94.808594 55.625 96.222656 54.582031 96.453125 53.070312 C 96.683594 51.554688 95.644531 50.140625 94.128906 49.90625 C 93.402344 49.792969 92.660156 49.976562 92.066406 50.410156 C 91.472656 50.847656 91.074219 51.503906 90.96875 52.234375 "/>
</g>
<mask id="mask20">
  <g filter="url(#alpha)">
<rect x="0" y="0" width="212" height="212" style="fill:rgb(0%,0%,0%);fill-opacity:0.909804;stroke:none;"/>
  </g>
</mask>
<clipPath id="clip21">
  <rect x="0" y="0" width="212" height="212"/>
</clipPath>
<g id="surface65" clip-path="url(#clip21)">
<path style=" stroke:none;fill-rule:nonzero;fill:rgb(100%,100%,100%);fill-opacity:1;" d="M 79.195312 57.8125 C 79.070312 58.542969 79.398438 59.273438 80.027344 59.667969 C 80.652344 60.058594 81.457031 60.03125 82.058594 59.601562 C 82.660156 59.171875 82.941406 58.417969 82.769531 57.699219 C 82.601562 56.980469 82.011719 56.433594 81.28125 56.316406 C 80.292969 56.160156 79.363281 56.828125 79.195312 57.8125 "/>
</g>
<mask id="mask21">
  <g filter="url(#alpha)">
<rect x="0" y="0" width="212" height="212" style="fill:rgb(0%,0%,0%);fill-opacity:0.811765;stroke:none;"/>
  </g>
</mask>
<clipPath id="clip22">
  <rect x="0" y="0" width="212" height="212"/>
</clipPath>
<g id="surface68" clip-path="url(#clip22)">
<path style=" stroke:none;fill-rule:nonzero;fill:rgb(100%,100%,100%);fill-opacity:1;" d="M 78.933594 55.921875 C 78.847656 56.351562 79.003906 56.792969 79.339844 57.070312 C 79.679688 57.351562 80.144531 57.421875 80.546875 57.257812 C 80.953125 57.089844 81.234375 56.714844 81.28125 56.28125 C 81.347656 55.648438 80.90625 55.074219 80.277344 54.980469 C 79.652344 54.882812 79.058594 55.296875 78.933594 55.921875 "/>
</g>
<mask id="mask22">
  <g filter="url(#alpha)">
<rect x="0" y="0" width="212" height="212" style="fill:rgb(0%,0%,0%);fill-opacity:0.4;stroke:none;"/>
  </g>
</mask>
<clipPath id="clip23">
  <rect x="0" y="0" width="212" height="212"/>
</clipPath>
<g id="surface71" clip-path="url(#clip23)">
<path style=" stroke:none;fill-rule:nonzero;fill:rgb(100%,100%,100%);fill-opacity:1;" d="M 111.683594 146.976562 C 108.816406 149.425781 108.476562 153.742188 110.929688 156.609375 C 113.378906 159.476562 117.695312 159.8125 120.558594 157.355469 C 123.425781 154.902344 123.757812 150.589844 121.300781 147.726562 C 118.851562 144.867188 114.546875 144.53125 111.683594 146.976562 "/>
</g>
<mask id="mask23">
  <g filter="url(#alpha)">
<rect x="0" y="0" width="212" height="212" style="fill:rgb(0%,0%,0%);fill-opacity:0.4;stroke:none;"/>
  </g>
</mask>
<clipPath id="clip24">
  <rect x="0" y="0" width="212" height="212"/>
</clipPath>
<g id="surface74" clip-path="url(#clip24)">
<path style=" stroke:none;fill-rule:nonzero;fill:rgb(100%,100%,100%);fill-opacity:1;" d="M 109.941406 155.472656 C 108.289062 156.902344 108.105469 159.402344 109.535156 161.054688 C 110.964844 162.707031 113.464844 162.886719 115.117188 161.457031 C 116.769531 160.027344 116.949219 157.53125 115.519531 155.878906 C 114.089844 154.226562 111.59375 154.046875 109.941406 155.472656 "/>
</g>
<mask id="mask24">
  <g filter="url(#alpha)">
<rect x="0" y="0" width="212" height="212" style="fill:rgb(0%,0%,0%);fill-opacity:0.341176;stroke:none;"/>
  </g>
</mask>
<clipPath id="clip25">
  <rect x="0" y="0" width="212" height="212"/>
</clipPath>
<g id="surface77" clip-path="url(#clip25)">
<path style=" stroke:none;fill-rule:nonzero;fill:rgb(60%,10.196078%,21.176471%);fill-opacity:1;" d="M 96.832031 90.496094 C 96.472656 91.59375 96.921875 92.738281 98.191406 93.675781 C 101.054688 95.566406 108.230469 95.671875 111.054688 97.808594 C 113.410156 99.867188 113.890625 103.089844 116 105.117188 C 119.15625 108.265625 121.714844 107.445312 125.609375 107.316406 C 129.984375 107.257812 131.226562 108.664062 134.21875 111.300781 C 139.355469 115.917969 144.046875 115.789062 148.742188 112.492188 L 149.183594 112.386719 C 143.5 117.816406 137.964844 119.117188 131.773438 113.597656 C 128.78125 110.949219 127.546875 109.550781 123.164062 109.605469 C 119.269531 109.738281 116.710938 110.5625 113.554688 107.40625 C 111.4375 105.386719 110.964844 102.171875 108.609375 100.097656 C 105.78125 97.96875 98.609375 97.855469 95.753906 95.96875 C 93.449219 94.339844 93.824219 91.796875 96.832031 90.496094 "/>
</g>
</defs>
<g id="surface1">
<path style=" stroke:none;fill-rule:nonzero;fill:rgb(19.607843%,60%,27.45098%);fill-opacity:1;" d="M 62.921875 106.203125 C 56.011719 106.949219 47.886719 99.917969 42.921875 95.730469 C 37.539062 91.355469 32.816406 86.226562 28.898438 80.503906 C 25.488281 74.96875 22.289062 68.753906 20.753906 62.554688 C 18.421875 53.632812 23.183594 50.894531 25.429688 43.28125 C 25.976562 41.699219 26.257812 40.035156 26.257812 38.359375 C 24.261719 39.390625 22.398438 41.753906 20.515625 43.003906 C 18.585938 40.347656 17.082031 36.355469 14.269531 34.15625 C 13.410156 37.402344 14.792969 40.625 14.71875 43.746094 C 11.59375 43.675781 9.125 42.136719 6.09375 41.171875 C 7.921875 44.164062 11.398438 46.019531 12.667969 49.578125 C 14.164062 53.019531 14.441406 57.371094 15.273438 61.148438 C 16.328125 65.933594 17.394531 71.273438 20.019531 75.820312 C 26.519531 87.347656 35.691406 98.066406 46.609375 105.625 C 49.644531 107.710938 69.511719 116.84375 62.792969 105.992188 Z M 62.921875 106.203125 "/>
<path style=" stroke:none;fill-rule:nonzero;fill:rgb(97.254902%,59.607843%,21.960784%);fill-opacity:1;" d="M 13.753906 31.667969 C 14.308594 32.734375 19.28125 38.464844 15.183594 38.398438 C 12.496094 38.398438 12.757812 32.714844 13.476562 31.15625 Z M 13.753906 31.667969 "/>
<path style=" stroke:none;fill-rule:nonzero;fill:rgb(97.254902%,59.607843%,21.960784%);fill-opacity:1;" d="M 5.503906 38.628906 C 6.722656 39.378906 11.71875 41.507812 9.125 43.691406 C 6.335938 46.152344 5.386719 39.707031 5.160156 38.292969 Z M 5.503906 38.628906 "/>
<path style=" stroke:none;fill-rule:nonzero;fill:rgb(97.254902%,59.607843%,21.960784%);fill-opacity:1;" d="M 27.074219 37.492188 C 27.074219 39.175781 26.324219 45.636719 23.4375 42.578125 C 20.710938 39.921875 26.429688 37.5 27.597656 36.878906 Z M 27.074219 37.492188 "/>
<path style=" stroke:none;fill-rule:nonzero;fill:rgb(19.607843%,60%,27.45098%);fill-opacity:1;" d="M 120.1875 172.097656 C 118.167969 178.882812 121.347656 187.871094 125.296875 193.460938 C 114.863281 199.324219 92.523438 198.695312 89.734375 184.484375 C 88.140625 176.257812 87.625 170.058594 97.667969 169.878906 C 104.96875 169.632812 111.496094 172.773438 118.558594 173.199219 Z M 120.1875 172.097656 "/>
<path style=" stroke:none;fill-rule:nonzero;fill:rgb(97.254902%,59.607843%,21.960784%);fill-opacity:1;" d="M 125.648438 194.199219 C 124.898438 192.03125 121.90625 190.234375 119.582031 190.984375 C 117.007812 191.730469 116.34375 195.023438 116.230469 197.304688 C 119.519531 196.792969 122.699219 195.742188 125.648438 194.199219 "/>
<path style=" stroke:none;fill-rule:nonzero;fill:rgb(97.254902%,59.607843%,21.960784%);fill-opacity:1;" d="M 118.765625 196.699219 C 118.484375 194.550781 116.171875 192.210938 113.941406 192.367188 C 111.480469 192.449219 110.242188 195.292969 109.703125 197.339844 C 113.0625 197.652344 116.449219 197.433594 119.738281 196.699219 Z M 118.765625 196.699219 "/>
<path style=" stroke:none;fill-rule:nonzero;fill:rgb(97.254902%,59.607843%,21.960784%);fill-opacity:1;" d="M 112.09375 197.347656 C 112.273438 195.621094 110.914062 193.371094 109.140625 193.0625 C 107.203125 192.660156 105.699219 194.648438 104.894531 196.144531 C 107.457031 197.023438 110.140625 197.496094 112.851562 197.542969 Z M 112.09375 197.347656 "/>
<use xlink:href="#surface5" mask="url(#mask0)"/>
<path style=" stroke:none;fill-rule:nonzero;fill:rgb(19.607843%,60%,27.45098%);fill-opacity:1;" d="M 53.160156 137.824219 C 47.058594 141.40625 37.566406 140.492188 31.203125 138.003906 C 28.015625 149.542969 34 171.074219 48.480469 170.363281 C 56.871094 169.921875 62.988281 168.9375 60.738281 159.144531 C 59.242188 151.988281 54.605469 146.429688 52.511719 139.65625 Z M 53.160156 137.824219 "/>
<path style=" stroke:none;fill-rule:nonzero;fill:rgb(97.254902%,59.607843%,21.960784%);fill-opacity:1;" d="M 31.039062 138.363281 C 33.140625 138.578125 35.40625 140.828125 35.257812 143.074219 C 35.160156 145.535156 32.371094 146.867188 30.351562 147.472656 C 30.066406 144.417969 30.300781 141.339844 31.039062 138.363281 "/>
<path style=" stroke:none;fill-rule:nonzero;fill:rgb(97.254902%,59.607843%,21.960784%);fill-opacity:1;" d="M 30.714844 146.589844 C 32.699219 146.371094 35.285156 147.917969 35.660156 149.953125 C 36.132812 152.199219 33.863281 153.902344 32.152344 154.84375 C 31.128906 151.910156 30.566406 148.835938 30.492188 145.726562 Z M 30.714844 146.589844 "/>
<path style=" stroke:none;fill-rule:nonzero;fill:rgb(97.254902%,59.607843%,21.960784%);fill-opacity:1;" d="M 31.589844 152.691406 C 33.085938 152.152344 35.414062 152.871094 36.078125 154.382812 C 36.828125 156.027344 35.429688 157.816406 34.269531 158.867188 C 32.921875 156.769531 31.910156 154.46875 31.277344 152.054688 Z M 31.589844 152.691406 "/>
<use xlink:href="#surface8" mask="url(#mask1)"/>
<path style=" stroke:none;fill-rule:nonzero;fill:rgb(19.607843%,60%,27.45098%);fill-opacity:1;" d="M 134.414062 110.203125 C 140.753906 113.03125 150.640625 108.8125 156.640625 106.351562 C 163.105469 103.835938 169.175781 100.398438 174.65625 96.144531 C 179.601562 91.917969 184.550781 86.980469 187.910156 81.519531 C 192.859375 73.765625 189.167969 69.703125 189.355469 61.761719 C 189.316406 60.089844 189.554688 58.421875 190.0625 56.824219 C 191.648438 58.410156 192.703125 61.238281 194.109375 63.003906 C 196.765625 61.066406 199.414062 57.714844 202.769531 56.488281 C 202.582031 59.839844 200.289062 62.472656 199.40625 65.464844 C 202.398438 66.355469 205.222656 65.652344 208.378906 65.660156 C 205.726562 67.945312 201.84375 68.648438 199.546875 71.640625 C 197.070312 74.460938 195.480469 78.515625 193.5625 81.867188 C 191.097656 86.097656 188.441406 90.839844 184.550781 94.378906 C 174.828125 103.351562 162.824219 110.757812 150.148438 114.625 C 146.617188 115.671875 124.914062 118.289062 134.628906 110.007812 Z M 134.414062 110.203125 "/>
<path style=" stroke:none;fill-rule:nonzero;fill:rgb(97.254902%,59.607843%,21.960784%);fill-opacity:1;" d="M 204.019531 54.273438 C 203.175781 55.128906 196.683594 59.054688 200.617188 60.257812 C 203.160156 61.109375 204.664062 55.585938 204.453125 53.886719 Z M 204.019531 54.273438 "/>
<path style=" stroke:none;fill-rule:nonzero;fill:rgb(97.254902%,59.607843%,21.960784%);fill-opacity:1;" d="M 209.75 63.429688 C 208.371094 63.75 202.949219 64.273438 204.753906 67.167969 C 206.660156 70.363281 209.539062 64.519531 210.175781 63.242188 Z M 209.75 63.429688 "/>
<path style=" stroke:none;fill-rule:nonzero;fill:rgb(97.254902%,59.607843%,21.960784%);fill-opacity:1;" d="M 189.5625 55.75 C 189.03125 57.339844 187.746094 63.722656 191.46875 61.730469 C 194.875 60.035156 190.199219 55.988281 189.226562 55 Z M 189.5625 55.75 "/>
<path style=" stroke:none;fill-rule:nonzero;fill:rgb(43.529412%,74.509804%,26.666667%);fill-opacity:1;" d="M 141.40625 78.53125 C 137.046875 66.675781 151.945312 56.03125 161.210938 56.316406 C 175.792969 56.707031 179.160156 53.609375 189.441406 40.789062 C 183.878906 48.1875 185.234375 57.992188 179.863281 66.332031 C 174.164062 75.910156 164.285156 81.15625 169.175781 92.71875 C 173.0625 101.332031 172.167969 111.324219 165.347656 118.386719 C 155.121094 129.859375 142.222656 123.253906 141.414062 109.695312 Z M 141.40625 78.53125 "/>
<use xlink:href="#surface11" mask="url(#mask2)"/>
<path style=" stroke:none;fill-rule:nonzero;fill:rgb(19.607843%,60%,27.45098%);fill-opacity:1;" d="M 144.425781 83.9375 C 144.015625 78.058594 151.113281 73.554688 154.761719 74.070312 C 160.515625 74.820312 162.183594 73.503906 167.703125 67.765625 C 164.710938 71.09375 164.121094 75.859375 161.054688 79.644531 C 157.71875 84.019531 153.214844 86.136719 153.867188 91.886719 C 154.488281 96.417969 152.855469 100.972656 149.492188 104.070312 C 144.152344 109.164062 139.769531 105.460938 140.964844 98.910156 Z M 144.425781 83.9375 "/>
<path style=" stroke:none;fill-rule:nonzero;fill:rgb(43.529412%,74.509804%,26.666667%);fill-opacity:1;" d="M 73.464844 65.285156 C 82.042969 56.011719 72.375 40.46875 63.742188 37.164062 C 50.109375 31.921875 48.1875 27.777344 43.609375 11.964844 C 45.90625 20.941406 40.886719 29.46875 42.636719 39.226562 C 44.230469 50.265625 51.328125 58.90625 42.382812 67.699219 C 35.472656 74.160156 32.488281 83.734375 36.054688 92.867188 C 41.089844 107.390625 55.5 106.246094 61.484375 94.027344 Z M 73.464844 65.285156 "/>
<use xlink:href="#surface14" mask="url(#mask3)"/>
<path style=" stroke:none;fill-rule:nonzero;fill:rgb(19.607843%,60%,27.45098%);fill-opacity:1;" d="M 66.765625 70.992188 C 70.265625 66.25 66.691406 58.644531 63.332031 57.125 C 58.097656 54.703125 57.347656 52.636719 55.792969 44.859375 C 56.542969 49.292969 54.476562 53.617188 55.046875 58.457031 C 55.515625 63.929688 58.179688 68.132812 54.542969 72.667969 C 51.589844 76.144531 50.523438 80.847656 51.6875 85.261719 C 53.460938 92.425781 59.167969 91.65625 61.648438 85.476562 Z M 66.765625 70.992188 "/>
<path style=" stroke:none;fill-rule:nonzero;fill:rgb(64.313725%,80.392157%,22.352941%);fill-opacity:1;" d="M 143.539062 70.390625 C 147.390625 85.746094 134.070312 141.734375 129.941406 155.25 C 127.226562 164.140625 123.015625 173.945312 114.234375 176.480469 C 98.140625 181.164062 62.292969 171.898438 57.140625 165.53125 C 51.425781 158.464844 49.855469 147.582031 52.261719 135.617188 C 54.976562 122.15625 63.414062 66.585938 71.5 56.398438 C 89.613281 33.582031 137.761719 48.464844 143.566406 70.355469 "/>
<use xlink:href="#surface17" mask="url(#mask4)"/>
<use xlink:href="#surface20" mask="url(#mask5)"/>
<path style=" stroke:none;fill-rule:nonzero;fill:rgb(19.607843%,60%,27.45098%);fill-opacity:1;" d="M 108.535156 58.382812 C 106.679688 70.5 114.996094 81.828125 127.117188 83.6875 C 139.234375 85.550781 150.566406 77.238281 152.429688 65.121094 C 154.296875 53.003906 145.992188 41.667969 133.875 39.796875 C 121.753906 37.941406 110.421875 46.261719 108.566406 58.382812 "/>
<path style=" stroke:none;fill-rule:nonzero;fill:rgb(98.039216%,95.294118%,60.784314%);fill-opacity:1;" d="M 112.183594 56.757812 C 110.511719 67.660156 117.992188 77.855469 128.894531 79.527344 C 139.796875 81.199219 149.992188 73.714844 151.660156 62.8125 C 153.332031 51.910156 145.847656 41.71875 134.945312 40.050781 C 124.046875 38.378906 113.855469 45.859375 112.183594 56.757812 "/>
<use xlink:href="#surface23" mask="url(#mask6)"/>
<use xlink:href="#surface26" mask="url(#mask7)"/>
<path style=" stroke:none;fill-rule:nonzero;fill:rgb(18.431373%,6.27451%,6.27451%);fill-opacity:1;" d="M 119.007812 60.214844 C 117.960938 67.015625 122.628906 73.375 129.429688 74.417969 C 136.230469 75.464844 142.59375 70.796875 143.636719 63.996094 C 144.683594 57.195312 140.015625 50.832031 133.214844 49.789062 C 126.414062 48.746094 120.054688 53.410156 119.007812 60.214844 "/>
<use xlink:href="#surface29" mask="url(#mask8)"/>
<use xlink:href="#surface32" mask="url(#mask9)"/>
<path style=" stroke:none;fill-rule:nonzero;fill:rgb(0%,0%,0%);fill-opacity:1;" d="M 122.65625 64.042969 C 121.984375 68.527344 125.070312 72.710938 129.554688 73.394531 C 134.042969 74.074219 138.230469 70.996094 138.921875 66.515625 C 139.613281 62.03125 136.546875 57.832031 132.0625 57.132812 C 129.898438 56.792969 127.6875 57.332031 125.921875 58.628906 C 124.15625 59.925781 122.980469 61.875 122.65625 64.042969 "/>
<use xlink:href="#surface35" mask="url(#mask10)"/>
<use xlink:href="#surface38" mask="url(#mask11)"/>
<use xlink:href="#surface41" mask="url(#mask12)"/>
<use xlink:href="#surface44" mask="url(#mask13)"/>
<path style=" stroke:none;fill-rule:nonzero;fill:rgb(19.607843%,60%,27.45098%);fill-opacity:1;" d="M 67.675781 52.136719 C 65.824219 64.253906 74.144531 75.578125 86.261719 77.433594 C 98.378906 79.289062 109.703125 70.972656 111.5625 58.855469 C 113.417969 46.738281 105.101562 35.410156 92.988281 33.550781 C 80.863281 31.691406 69.53125 40.011719 67.675781 52.136719 "/>
<path style=" stroke:none;fill-rule:nonzero;fill:rgb(98.039216%,95.294118%,60.784314%);fill-opacity:1;" d="M 71.296875 50.511719 C 69.628906 61.410156 77.109375 71.597656 88.003906 73.265625 C 98.902344 74.9375 109.089844 67.457031 110.757812 56.5625 C 112.429688 45.664062 104.953125 35.476562 94.054688 33.804688 C 83.15625 32.128906 72.964844 39.613281 71.296875 50.511719 "/>
<use xlink:href="#surface47" mask="url(#mask14)"/>
<use xlink:href="#surface50" mask="url(#mask15)"/>
<path style=" stroke:none;fill-rule:nonzero;fill:rgb(18.431373%,6.27451%,6.27451%);fill-opacity:1;" d="M 78.140625 53.96875 C 77.097656 60.773438 81.769531 67.140625 88.574219 68.183594 C 95.382812 69.226562 101.746094 64.554688 102.789062 57.746094 C 103.832031 50.941406 99.15625 44.578125 92.351562 43.535156 C 85.546875 42.492188 79.183594 47.164062 78.140625 53.96875 "/>
<use xlink:href="#surface53" mask="url(#mask16)"/>
<use xlink:href="#surface56" mask="url(#mask17)"/>
<path style=" stroke:none;fill-rule:nonzero;fill:rgb(0%,0%,0%);fill-opacity:1;" d="M 81.820312 57.789062 C 81.164062 62.273438 84.253906 66.445312 88.738281 67.117188 C 93.21875 67.792969 97.402344 64.714844 98.089844 60.238281 C 98.78125 55.757812 95.71875 51.5625 91.242188 50.855469 C 89.078125 50.519531 86.871094 51.054688 85.105469 52.351562 C 83.335938 53.648438 82.160156 55.59375 81.835938 57.761719 "/>
<use xlink:href="#surface59" mask="url(#mask18)"/>
<use xlink:href="#surface62" mask="url(#mask19)"/>
<use xlink:href="#surface65" mask="url(#mask20)"/>
<use xlink:href="#surface68" mask="url(#mask21)"/>
<use xlink:href="#surface71" mask="url(#mask22)"/>
<use xlink:href="#surface74" mask="url(#mask23)"/>
<path style=" stroke:none;fill-rule:nonzero;fill:rgb(39.607843%,3.529412%,20%);fill-opacity:1;" d="M 137.03125 91.242188 C 138.136719 94.070312 133.671875 96.972656 130.179688 98.511719 C 124.945312 100.652344 115.492188 100.808594 107.839844 100.128906 C 92.582031 98.773438 75.292969 91.8125 73.554688 85.019531 C 72.972656 82.285156 71.453125 78.910156 79.832031 80.03125 C 87.945312 81.117188 89.554688 84.28125 101.054688 87.121094 C 106.621094 88.5 113.203125 89.621094 118.585938 89.492188 C 122.625 89.375 133.726562 87.296875 136.8125 90.988281 C 137.054688 91.140625 137.03125 91.242188 137.269531 91.394531 Z M 137.03125 91.242188 "/>
<path style=" stroke:none;fill-rule:nonzero;fill:rgb(18.039216%,6.666667%,12.156863%);fill-opacity:1;" d="M 113.972656 95.867188 C 117.710938 95.117188 119.625 92.875 119.417969 90.9375 C 119.261719 89.492188 117.78125 89.253906 114.742188 89.21875 C 112.402344 89.21875 110.023438 89.3125 107.546875 89.261719 C 108.132812 89.867188 107.765625 90.375 107.144531 90.757812 C 109.386719 91.410156 108.371094 92.441406 106.433594 92.410156 C 104.09375 92.410156 102.34375 91.355469 102.910156 90.480469 C 103.082031 90.277344 103.757812 90.382812 103.914062 90.292969 C 104.070312 90.203125 103.847656 89.890625 104.027344 89.6875 C 104.535156 89.148438 104.550781 89.039062 103.53125 88.589844 C 102.246094 88.042969 99.695312 87.632812 98.132812 87.039062 C 96.570312 86.449219 95.066406 85.6875 93.242188 85.792969 C 92.070312 85.933594 91.03125 86.609375 90.429688 87.625 C 89.679688 88.753906 90.121094 90.128906 91.535156 91.5 C 93.78125 93.621094 98.769531 95.109375 103.449219 95.984375 C 104.878906 96.265625 106.320312 96.460938 107.773438 96.570312 C 110.375 96.703125 111.730469 96.066406 114.105469 95.933594 Z M 113.972656 95.867188 "/>
<path style=" stroke:none;fill-rule:nonzero;fill:rgb(92.941176%,10.980392%,14.117647%);fill-opacity:1;" d="M 106.949219 93.667969 C 113.425781 90.382812 116.097656 95.992188 117.824219 98.902344 C 120.570312 103.203125 121.871094 104.4375 124.554688 103.859375 C 129.902344 102.714844 131.773438 104.242188 135.878906 107.539062 C 139.984375 110.839844 142.558594 111.476562 146.960938 108.027344 C 146.605469 110.390625 143.894531 110.652344 142.175781 112.328125 C 144.621094 112.214844 146.949219 112.875 149.230469 112.253906 C 143.542969 117.691406 138.011719 118.984375 131.816406 113.464844 C 128.824219 110.824219 127.585938 109.417969 123.210938 109.476562 C 119.304688 109.605469 116.753906 110.425781 113.597656 107.277344 C 111.480469 105.253906 111.003906 102.042969 108.65625 99.964844 C 105.828125 97.832031 98.65625 97.722656 95.792969 95.835938 C 93.167969 93.980469 94.027344 90.929688 98.3125 89.890625 C 101.847656 88.976562 105.789062 91.527344 106.957031 93.628906 "/>
<use xlink:href="#surface77" mask="url(#mask24)"/>
<path style=" stroke:none;fill-rule:nonzero;fill:rgb(100%,100%,100%);fill-opacity:1;" d="M 123.800781 89.320312 C 122.917969 90.363281 122.609375 93.953125 120.613281 94.296875 C 118.132812 94.699219 116.753906 90.976562 115.238281 89.808594 C 114.136719 90.246094 113.078125 90.78125 112.074219 91.410156 C 109.882812 89.914062 110.234375 89.164062 107.175781 90.136719 C 105.148438 90.734375 104.183594 92.148438 102.1875 92.621094 C 100.960938 91.125 101.4375 89.628906 100.691406 88.132812 C 99.527344 88.359375 98.402344 88.757812 97.355469 89.3125 C 96.292969 88.363281 95.730469 87.242188 94.902344 86.324219 C 92.410156 86.726562 90.5625 87.742188 88.746094 88.507812 C 88.304688 86.613281 88.164062 84.378906 89.597656 82.914062 C 96.742188 86.996094 114.855469 90.683594 123.34375 89.121094 Z M 123.800781 89.320312 "/>
</g>
</svg>
